<svg width="101" height="90" viewBox="0 0 101 90" fill="none" xmlns="http://www.w3.org/2000/svg">
<path d="M35.964 21.4686L57.1031 26.279L70.1677 38.8728V54.4396L57.1031 67.0334L35.964 71.8438L14.8249 67.0334L1.7602 54.4396V38.8728L14.8249 26.279L35.964 21.4686Z" fill="#373737"/>
<path d="M15.0716 26.7357L35.964 21.9814L56.8563 26.7357L69.6677 39.0853V54.2271L56.8563 66.5768L35.964 71.3311L15.0716 66.5768L2.2602 54.2271V39.0853L15.0716 26.7357Z" stroke="black" stroke-opacity="0.53"/>
<path d="M29.7987 55.0521L34.6305 56.2992L37.6167 59.5643V63.6001L34.6305 66.8652L29.7987 68.1123L24.9669 66.8652L21.9807 63.6001V59.5643L24.9669 56.2992L29.7987 55.0521Z" fill="#373737"/>
<path d="M25.2357 56.7463L29.7987 55.5685L34.3618 56.7463L37.1167 59.7585V63.406L34.3618 66.4182L29.7987 67.596L25.2357 66.4182L22.4807 63.406V59.7585L25.2357 56.7463Z" stroke="#858585" stroke-opacity="0.19"/>
<path d="M14.4625 64.308L20.2801 60.5278L26.9646 60.4154L31.9629 64.0138L33.3657 69.9484L30.6372 75.9525L24.8197 79.7327L18.1351 79.8451L13.1368 76.2467L11.734 70.3121L14.4625 64.308Z" fill="#373737"/>
<path d="M12.2791 70.3475L14.8853 64.6124L20.4423 61.0016L26.7789 60.895L31.4909 64.2873L32.8206 69.913L30.2144 75.6481L24.6575 79.2589L18.3209 79.3655L13.6089 75.9732L12.2791 70.3475Z" stroke="#858585" stroke-opacity="0.19"/>
<path d="M60.2897 8.25707L79.4632 17.6619L88.6938 32.7966L84.4556 47.8804L68.3675 57.1517L46.5747 57.0692L27.4012 47.6644L18.1707 32.5296L22.4088 17.4458L38.4969 8.17456L60.2897 8.25707Z" fill="#858585"/>
<path d="M38.616 8.66949L60.1509 8.75103L79.0975 18.0445L88.1496 32.8867L84.0255 47.5647L68.2484 56.6568L46.7135 56.5752L27.7669 47.2817L18.7148 32.4395L22.8389 17.7615L38.616 8.66949Z" stroke="black" stroke-opacity="0.15"/>
<path d="M58.2785 34.0123L79.9195 36.3457L94.6405 47.3307L96.8187 62.7714L85.6221 76.7699L65.3274 83.9794L43.6865 81.646L28.9654 70.661L26.7872 55.2203L37.9838 41.2218L58.2785 34.0123Z" fill="#585858"/>
<path d="M38.2932 41.6451L58.3502 34.5201L79.7376 36.8262L94.1735 47.5984L96.2925 62.6192L85.3127 76.3465L65.2558 83.4715L43.8683 81.1655L29.4325 70.3933L27.3135 55.3725L38.2932 41.6451Z" stroke="black" stroke-opacity="0.12"/>
<path d="M29.7987 65.3137L38.6357 67.7724L40.8183 73.2969L34.7029 77.7273H24.8945L18.7791 73.2969L20.9617 67.7724L29.7987 65.3137Z" fill="#858585"/>
<path d="M21.3353 68.1874L29.7987 65.8327L38.2621 68.1874L40.2107 73.1197L34.5408 77.2273H25.0566L19.3868 73.1197L21.3353 68.1874Z" stroke="black" stroke-opacity="0.24"/>
<path d="M32.8813 71.8438L44.1285 74.8294L46.9063 81.5377L39.123 86.9174H26.6397L18.8564 81.5377L21.6342 74.8294L32.8813 71.8438Z" fill="#858585"/>
<path d="M22.0016 75.2492L32.8813 72.3612L43.7611 75.2492L46.2898 81.356L38.967 86.4174H26.7957L19.4729 81.356L22.0016 75.2492Z" stroke="black" stroke-opacity="0.17"/>
<path d="M54.6624 64.5796L59.6614 75.0204L54.3561 83.5829L42.7415 83.8194L33.5636 75.5518L33.7336 65.0057L43.1234 60.1226L54.6624 64.5796Z" fill="#858585"/>
<path d="M43.1575 60.6525L54.2653 64.9429L59.0775 74.9935L54.0463 83.1138L42.9525 83.3397L34.0904 75.3564L34.2527 65.2833L43.1575 60.6525Z" stroke="black" stroke-opacity="0.17"/>
</svg>
